<?xml version="1.0" encoding="UTF-8"?>
<svg id="Capa_2" data-name="Capa 2" xmlns="http://www.w3.org/2000/svg" viewBox="0 0 274.25 205.43" class="kurochat-icon">
  <style>
    .kurochat-icon path,
    .kurochat-icon circle {
      fill: var(--kurochat-color, currentColor);
      transition: fill 0.3s ease;
    }
  </style>
  <g id="Capa_1-2" data-name="Capa 1">
    <path
      d="M12.5,0C5.59,0,0,5.59,0,12.5s5.59,12.5,12.5,12.5c1.53,0,2.99-.32,4.35-.82v.02l8.15,50.8,15.9,2.7c4.1-12.7,20.21-24.04,33.91-30.74l-4.8-16.95-46.1-12.35h-.03c.71-1.58,1.13-3.31,1.13-5.15C25,5.59,19.41,0,12.5,0Z" />
    <path
      d="M261.75.15c-6.91,0-12.5,5.59-12.5,12.5,0,1.84.42,3.57,1.13,5.15h-.03l-46.1,12.35-4.45,16.1c14.6,7.25,26.15,21.85,34.95,31.3l14.5-2.4,8.15-50.8v-.02c1.36.5,2.81.82,4.35.82,6.91,0,12.5-5.59,12.5-12.5S268.66.15,261.75.15Z" />
    <path
      d="M220.8,166.85c9.83-12.92,15.53-28.25,15.53-44.71,0-46-44.53-83.29-99.46-83.29S37.4,76.14,37.4,122.14s44.53,83.29,99.46,83.29c17.56,0,34.06-3.81,48.38-10.5,6.25-2.92,59.55,10.47,59.55,10.47,0,0-29.03-31.95-23.99-38.56ZM137.3,64.72c15.15,0,27.5,10.2,27.5,22.75,0,7.3-4.1,14.05-11.1,18.3v8.95h-32.79v-8.95c-7-4.25-11.1-11-11.1-18.3,0-12.55,12.35-22.75,27.5-22.75ZM189.4,175.82c-.6.55-1.2,1.05-1.85,1.65-.65.5-1.3,1.04-2,1.54-1.35,1-2.75,2-4.2,2.9h-.05c-12.85,8.2-30.15,12.8-44,12.8-11.25,0-24.7-3.1-36.3-8.65-.8-.4-1.6-.8-2.4-1.25-.8-.4-1.55-.8-2.35-1.25-.55-.3-1.15-.65-1.7-1l-.1-.1c-11.15-6.8-19.25-16.31-19.45-27.71-.2-13.65,11.91-29.65,26.46-34.9l.85-.29,35.1,12.55,34.9-12.55.85.29c14.45,5.25,26.65,21.2,26.65,34.85,0,8.05-4.05,15.2-10.4,21.1Z" />
    <circle cx="126.1" cy="87.22" r="5" />
    <circle cx="149.92" cy="87.22" r="5" />
  </g>
</svg>